<svg version="1.1" id="loader-1" xmlns="http://www.w3.org/2000/svg" xmlns:xlink="http://www.w3.org/1999/xlink" x="0px" y="0px" width="120px" height="120px" viewBox="0 0 40 40" enable-background="new 0 0 40 40" xml:space="preserve" fill="orange">
  <path opacity=".1" d="M14 0 H18 V8 H14 z" transform="rotate(0 16 16)">
    <animate attributeName="opacity" from="1" to=".1" dur="1s" repeatCount="indefinite" begin="0"/>
  </path>
  <path opacity=".1" d="M14 0 H18 V8 H14 z" transform="rotate(45 16 16)">
    <animate attributeName="opacity" from="1" to=".1" dur="1s" repeatCount="indefinite" begin="0.125s"/>
  </path>
  <path opacity=".1" d="M14 0 H18 V8 H14 z" transform="rotate(90 16 16)">
    <animate attributeName="opacity" from="1" to=".1" dur="1s" repeatCount="indefinite" begin="0.25s"/>
  </path>
  <path opacity=".1" d="M14 0 H18 V8 H14 z" transform="rotate(135 16 16)">
    <animate attributeName="opacity" from="1" to=".1" dur="1s" repeatCount="indefinite" begin="0.375s"/>
  </path>
  <path opacity=".1" d="M14 0 H18 V8 H14 z" transform="rotate(180 16 16)">
    <animate attributeName="opacity" from="1" to=".1" dur="1s" repeatCount="indefinite" begin="0.5s"/>
  </path>
  <path opacity=".1" d="M14 0 H18 V8 H14 z" transform="rotate(225 16 16)">
    <animate attributeName="opacity" from="1" to=".1" dur="1s" repeatCount="indefinite" begin="0.675s"/>
  </path>
  <path opacity=".1" d="M14 0 H18 V8 H14 z" transform="rotate(270 16 16)">
    <animate attributeName="opacity" from="1" to=".1" dur="1s" repeatCount="indefinite" begin="0.75s"/>
  </path>
  <path opacity=".1" d="M14 0 H18 V8 H14 z" transform="rotate(315 16 16)">
    <animate attributeName="opacity" from="1" to=".1" dur="1s" repeatCount="indefinite" begin="0.875s"/>
  </path>
</svg>
